<svg width="360" height="413" viewBox="0 0 360 413" fill="none" xmlns="http://www.w3.org/2000/svg">
<path d="M171.823 2.97805C186.322 11.0882 256.862 342.996 256.862 342.996L31.2578 330.163C31.2578 330.163 165.14 1.43793 171.823 2.97805Z" fill="#A4D6E1"/>
<path d="M171.823 2.97805C186.322 11.0882 256.862 342.996 256.862 342.996L31.2578 330.163C31.2578 330.163 165.14 1.43793 171.823 2.97805Z" fill="#D3E1E1"/>
<path d="M113.212 253.782L167.196 337.895L31.2578 330.163L113.212 253.782Z" fill="#A4D6E1"/>
<path d="M175.632 8.05469C176.401 8.51771 177.561 9.28253 179.101 10.4805C182.18 12.8768 186.777 17.0056 192.807 23.915C204.865 37.7334 222.641 62.6644 245.452 107.082C259.726 140.768 275.423 197.136 287.556 245.113C293.621 269.1 298.794 290.979 302.45 306.862C304.278 314.804 305.727 321.246 306.719 325.702C307.215 327.93 307.597 329.662 307.854 330.837C307.982 331.417 308.078 331.862 308.144 332.163C308.116 332.17 308.088 332.179 308.058 332.187C307.697 332.281 307.159 332.42 306.454 332.593C305.044 332.938 302.963 333.421 300.288 333.973C294.938 335.075 287.209 336.449 277.701 337.531C258.738 339.69 232.711 340.689 204.379 336.072C201.327 330.372 198.565 321.058 196.08 309.061C193.566 296.925 191.344 282.091 189.381 265.573C185.455 232.538 182.57 192.793 180.47 154.479C178.369 116.166 177.052 79.2892 176.261 51.9902C175.865 38.3411 175.6 27.0862 175.435 19.2441C175.352 15.3231 175.294 12.2545 175.257 10.167C175.238 9.13964 175.225 8.34976 175.216 7.8125C175.339 7.88208 175.478 7.96193 175.632 8.05469ZM167.651 13.7969C167.341 18.0071 166.897 24.0925 166.36 31.5918C165.287 46.5904 163.844 67.2469 162.363 89.877C159.402 135.133 156.291 188.298 155.693 219.893C155.096 251.508 157.927 280.718 160.906 302.021C162.396 312.674 163.923 321.352 165.078 327.367C165.656 330.375 166.14 332.717 166.48 334.309C166.616 334.944 166.731 335.46 166.817 335.851C166.627 335.783 166.405 335.704 166.154 335.616C165.161 335.27 163.704 334.775 161.843 334.179C158.121 332.986 152.786 331.39 146.328 329.768C133.415 326.524 115.998 323.179 98.0039 322.783C80.0239 322.388 63.3101 324.111 51.0938 325.932C44.9849 326.842 39.9984 327.778 36.5381 328.486C34.808 328.84 33.4589 329.138 32.542 329.347C32.3521 329.39 32.1807 329.429 32.0283 329.465C32.0963 329.269 32.1763 329.042 32.2666 328.782C32.6189 327.77 33.1388 326.278 33.8096 324.356C35.1511 320.514 37.0964 314.955 39.5088 308.092C44.3336 294.364 51.0294 275.415 58.5137 254.532C73.4833 212.763 91.6037 163.263 104.215 132.314C116.82 101.381 133.029 70.1912 146.092 46.7305C152.622 35.0013 158.365 25.206 162.475 18.3438C164.529 14.9126 166.176 12.2147 167.309 10.375C167.56 9.96735 167.786 9.6023 167.985 9.28027C167.904 10.3747 167.791 11.8944 167.651 13.7969Z" fill="#FCFAF0" stroke="#FAF7EC"/>
<path d="M168.62 3.06371C168.632 1.3683 170.009 0 171.705 0C173.417 0 174.801 1.39396 174.789 3.10582L172.261 373.502C172.249 375.197 170.872 376.566 169.176 376.566C167.464 376.566 166.08 375.172 166.092 373.46L168.62 3.06371Z" fill="#FCFAF0"/>
<path d="M356.49 295.945C357.665 295.714 358.579 296.837 358.112 297.94C354.306 306.948 343.419 332.484 331.949 357.29C326.214 369.694 320.335 381.91 315.124 391.784C312.518 396.721 310.082 401.068 307.917 404.558C305.814 407.946 303.983 410.496 302.515 411.998H22.8281C22.254 411.998 21.514 411.658 20.6162 410.905C19.7328 410.164 18.7645 409.081 17.7412 407.731C15.6959 405.033 13.4813 401.338 11.3379 397.375C7.05345 389.453 3.08828 380.529 1.36426 376.54C0.995971 375.688 1.44065 374.773 2.31738 374.557C18.0988 370.656 115.34 346.691 179.337 332.499C241.706 318.668 336.882 299.813 356.49 295.945Z" fill="url(#paint0_radial_6471_564)" stroke="#013253"/>
<defs>
<radialGradient id="paint0_radial_6471_564" cx="0" cy="0" r="1" gradientUnits="userSpaceOnUse" gradientTransform="translate(360.103 294.641) rotate(160.701) scale(360.951 125.983)">
<stop stop-color="#00325A"/>
<stop offset="1" stop-color="#014476"/>
</radialGradient>
</defs>
</svg>
